<?xml version="1.0" standalone="no"?>
<!DOCTYPE svg PUBLIC "-//W3C//DTD SVG 20010904//EN"
 "http://www.w3.org/TR/2001/REC-SVG-20010904/DTD/svg10.dtd">
<svg version="1.0" xmlns="http://www.w3.org/2000/svg"
 width="128.000000pt" height="128.000000pt" viewBox="0 0 128.000000 128.000000"
 preserveAspectRatio="xMidYMid meet">

<g transform="translate(0.000000,128.000000) scale(0.100000,-0.100000)"
fill="#000000" stroke="none">
<path d="M380 1217 c-52 -26 -54 -49 -25 -265 14 -108 28 -209 31 -224 l6 -28
-64 0 c-36 0 -69 -5 -76 -12 -15 -15 -16 -53 -2 -79 10 -18 25 -19 390 -19
365 0 380 1 390 19 14 26 13 64 -2 79 -7 7 -39 12 -75 12 -35 0 -63 2 -63 4 0
2 14 103 30 225 29 206 30 223 15 251 -9 17 -27 35 -41 40 -39 15 -484 12
-514 -3z m522 -34 c24 -21 23 -47 -10 -283 l-28 -195 -224 0 -224 0 -28 195
c-32 231 -33 258 -11 282 15 16 36 18 261 18 214 0 248 -2 264 -17z m106 -535
l-3 -33 -365 0 -365 0 -3 33 -3 32 371 0 371 0 -3 -32z"/>
<path d="M360 541 c-38 -20 -80 -89 -80 -130 1 -44 35 -107 72 -129 71 -44
178 -19 213 49 15 27 19 29 75 29 56 0 60 -2 75 -29 52 -101 218 -93 266 13
25 54 24 84 -4 136 -55 104 -207 107 -262 7 -19 -36 -22 -37 -75 -37 -53 0
-56 1 -75 37 -37 68 -133 93 -205 54z m125 -15 c80 -34 100 -151 37 -207 -111
-99 -269 33 -192 159 20 32 67 61 103 62 10 0 33 -6 52 -14z m410 0 c19 -8 44
-30 55 -48 77 -126 -81 -258 -192 -159 -62 56 -43 172 35 206 41 18 60 18 102
1z m-205 -126 c0 -17 -7 -20 -50 -20 -43 0 -50 3 -50 20 0 17 7 20 50 20 43 0
50 -3 50 -20z"/>
<path d="M236 262 c-15 -24 17 -105 58 -147 61 -64 127 -78 241 -50 76 18 134
18 210 0 105 -26 172 -15 231 37 42 37 61 72 70 127 8 50 -8 55 -31 10 -18
-35 -67 -59 -119 -59 -21 0 -62 15 -103 37 -100 54 -206 54 -306 0 -42 -23
-82 -37 -104 -37 -34 0 -103 26 -103 39 -1 16 -38 53 -44 43z m537 -67 c82
-43 139 -53 190 -32 41 17 45 13 21 -21 -42 -60 -139 -76 -271 -45 -69 16 -77
16 -145 0 -133 -31 -230 -15 -272 45 -24 34 -20 38 21 21 51 -21 108 -11 190
32 94 50 172 50 266 0z"/>
</g>
</svg>
